<svg width="512px" height="512px" xmlns="http://www.w3.org/2000/svg" viewBox="0 0 512 512">
 <g>
  <title>Layer 1</title>
  <path id="svg_1" d="m272.26041,139.4043c-0.06641,-0.25781 -0.12891,-0.51562 -0.12891,-0.64453c0,-2.05859 3.02735,-3.47656 5.27735,-3.47656c1.41797,0 2.51172,0.44922 2.83203,1.67578l9.85156,34.89062l9.78516,-34.89062c0.32031,-1.22656 1.41797,-1.67578 2.83203,-1.67578c2.2539,0 5.28125,1.48047 5.28125,3.47656c0,0.19531 -0.06641,0.38672 -0.13281,0.64453l-12.35938,40.49219c-0.57812,1.93359 -2.96094,2.83203 -5.40625,2.83203s-4.76562,-0.89844 -5.40625,-2.83203l-12.42578,-40.49219zm0,0"/>
  <path id="svg_2" d="m312.43228,137.86133c0,-1.35156 1.09375,-2.57422 2.70313,-2.57422l12.74609,0c8.4336,0 15.25782,3.21875 15.25782,13.45313c0,7.40234 -3.60547,11.39453 -8.4336,12.875l8.4336,15.64453c0.25781,0.32031 0.32031,0.77344 0.32031,1.03125c0,2.125 -2.76563,4.375 -5.21485,4.375c-1.15625,0 -2.25,-0.70703 -2.89453,-1.99609l-9.14062,-17.76954l-5.41016,0l0,16.80469c0,1.73828 -2.05859,2.64063 -4.18359,2.64063c-2.0625,0 -4.1875,-0.90235 -4.1875,-2.64063l0,-41.84375l0.0039,0zm8.36719,4.76172l0,13.71094l7.08203,0c4.1836,0 6.88672,-1.73828 6.88672,-6.82422c0,-5.08594 -2.70312,-6.88672 -6.88672,-6.88672l-7.08203,0zm0,0"/>
  <path stroke="null" id="svg_3" d="m465.10799,455.08378l-3.73536,-21.85947c-0.60721,-3.56478 -3.99461,-5.96292 -7.55939,-5.3523c-3.56478,0.61062 -5.9595,3.99461 -5.35229,7.55939l3.73535,21.85606c0.37524,2.21051 -0.2115,4.36985 -1.65788,6.08231c-1.44297,1.71246 -3.47268,2.65397 -5.71389,2.65397l-45.90898,0l-8.20071,-50.38799c-0.57992,-3.5682 -3.93662,-5.9902 -7.51505,-5.41028c-3.57161,0.57992 -5.99361,3.94343 -5.4137,7.51505l7.85958,48.28323l-260.88773,0l7.85618,-48.28323c0.58332,-3.57161 -1.84209,-6.93513 -5.41029,-7.51505c-3.56478,-0.57992 -6.93512,1.83868 -7.51845,5.41028l-8.1973,50.38799l-45.91239,0c-2.24121,0 -4.27092,-0.94151 -5.71389,-2.65397c-1.44297,-1.71246 -2.03312,-3.87181 -1.65447,-6.08231l8.94778,-52.387c3.05992,-17.91944 14.95164,-33.08599 31.19273,-40.53962c0.85623,-0.1808 1.65106,-0.52875 2.34696,-1.00974c1.78751,-0.71978 3.62619,-1.35087 5.5024,-1.87962l78.60267,-16.70162c20.89408,14.02036 45.1892,21.41942 70.40196,21.41942s49.50447,-7.39907 70.40195,-21.41942l78.59926,16.70162c20.19477,5.70707 35.508,22.73276 39.04208,43.42898c0.61062,3.56478 3.99461,5.9595 7.55939,5.3523c3.56478,-0.60721 5.96292,-3.99461 5.3523,-7.55939c-4.39373,-25.73127 -23.48324,-46.88802 -48.62778,-53.89478c-0.12962,-0.03753 -0.26267,-0.06823 -0.39912,-0.09552l-81.55343,-17.33271l-7.89711,-1.67834c-5.0828,-1.01997 -10.76599,-7.9824 -10.76599,-15.76693l0,-22.68841c12.08616,-10.84104 24.684,-23.56852 30.00219,-31.38376c9.02624,-13.2494 14.27279,-28.74684 15.17337,-44.81055l0.23196,-4.15835l3.05651,0c5.36253,0 9.94047,-3.42833 11.65634,-8.21094l6.72704,0c7.43659,0 13.4882,-6.0482 13.4882,-13.48479l0,-56.7432c0,-7.43658 -6.05161,-13.48819 -13.4882,-13.48819l-6.72704,0c-1.61694,-4.5063 -5.77529,-7.80842 -10.73871,-8.17683c-2.39813,-17.55103 -9.99504,-33.98315 -21.72642,-46.79933c-28.856,-31.50997 -71.26843,-31.98073 -73.65291,-31.98073c-0.01706,0 -0.03411,0 -0.04775,0l-11.31862,0c-1.84209,0.01706 -44.63999,0.23197 -73.7109,31.97391c-11.7348,12.81277 -19.3283,29.24489 -21.72984,46.80274c-4.97706,0.35477 -9.15246,3.66371 -10.77282,8.18025l-6.72704,0c-7.43658,0 -13.48819,6.05161 -13.48819,13.48819l0,21.82195l-10.20313,0c-12.4,0 -22.48374,10.08374 -22.48374,22.48374l0,176.89524c-18.86095,9.60274 -32.55382,27.76098 -36.19024,49.04735l-8.94779,52.39041c-1.02338,5.9902 0.63791,12.08957 4.55406,16.73231c3.91956,4.64275 9.6505,7.30696 15.72599,7.30696l379.24884,0c6.07549,0 11.80985,-2.66421 15.726,-7.30696c3.91956,-4.64274 5.58085,-10.74211 4.55747,-16.73231zm-97.35106,-323.02757l6.00044,0c0.21491,0 0.38888,0.17398 0.38888,0.38888l0,56.73979c0,0.21491 -0.17398,0.38888 -0.38888,0.38888l-6.00044,0l0,-57.51756zm-59.52339,207.86623c-16.28203,8.6476 -34.37545,13.16754 -53.03174,13.16754c-18.6631,0 -36.76334,-4.52336 -53.04878,-13.17436c9.06718,-5.28407 14.43653,-16.4833 14.43653,-25.99053l0,-11.54718c5.36935,4.28116 9.84836,7.4093 12.42047,8.50773c8.32352,3.54773 17.25766,5.32501 26.19179,5.32501s17.86828,-1.77386 26.18839,-5.32501c2.57551,-1.09843 7.05452,-4.22998 12.42046,-8.50773l0,11.54718c0,9.51405 5.38299,20.72693 14.42289,25.99735zm-122.73438,-267.09967c25.07972,-27.38574 63.63739,-27.72345 64.0331,-27.72345l11.35614,0l0.00341,0c0.56968,0 38.87152,0.26949 64.01263,27.72687c9.53452,10.41463 15.84539,23.67768 18.14118,37.91976l-175.69106,0c2.29921,-14.2489 8.61007,-27.51195 18.14459,-37.92318zm-29.78728,51.02249l4.2948,0l0.10916,0l194.54178,0l0,73.93945l-72.87172,0c-3.49655,0 -6.9249,-0.95516 -9.91659,-2.76313c-10.29182,-6.21535 -23.0773,-6.21535 -33.36912,0c-2.99169,1.80798 -6.42002,2.76313 -9.91658,2.76313l-11.8269,0c-3.61596,0 -6.54965,2.9337 -6.54965,6.54965s2.93369,6.54965 6.54965,6.54965l11.8269,0c5.88104,0 11.65293,-1.60671 16.68797,-4.64957c6.11642,-3.691 13.71334,-3.691 19.82635,0c5.03504,3.04286 10.80351,4.64957 16.68455,4.64957l57.41863,0l-0.19444,3.42151c-0.76754,13.68946 -5.2329,26.88769 -12.91851,38.1722c-9.45606,13.88731 -43.83152,43.7974 -49.83537,46.35586c-13.38245,5.70707 -28.72637,5.70707 -42.1054,0c-1.97172,-0.83918 -9.17634,-6.09254 -19.68649,-15.37463c-0.05458,-0.05117 -0.11258,-0.10234 -0.17056,-0.15009c-1.29288,-1.14278 -2.63351,-2.34696 -4.0219,-3.60914c-12.03157,-10.94338 -21.97545,-21.37507 -25.95642,-27.222c-7.68561,-11.28451 -12.15439,-24.48615 -12.92192,-38.17902l-0.19103,-3.41469l15.05397,0c3.61937,0 6.54965,-2.93369 6.54965,-6.54965c0,-3.61937 -2.93029,-6.54965 -6.54965,-6.54965l-30.54118,0l0,-73.93945zm-19.48863,8.59984c0,-0.21491 0.17398,-0.38888 0.38888,-0.38888l6.00043,0l0,57.51756l-6.00043,0c-0.21491,0 -0.38888,-0.17398 -0.38888,-0.38888l0,-56.73979zm-32.69028,44.30568c0,-5.17492 4.20952,-9.38443 9.38443,-9.38443l10.20654,0l0,21.81854c0,7.43658 6.0516,13.48819 13.48819,13.48819l6.72363,0c1.71587,4.78261 6.29381,8.21094 11.65975,8.21094l3.0838,0l0.23538,4.15153c0.90058,16.06712 6.14712,31.56797 15.17337,44.81737c5.31819,7.81524 17.91604,20.54272 30.00219,31.38376l0,22.68841c0,7.78453 -5.68319,14.74696 -10.83763,15.78398l-7.82547,1.66129l-81.29417,17.27471l0,-171.8943zm0,0"/>
 </g>
</svg>